<?xml version="1.0" encoding="UTF-8" standalone="no"?>
<!-- Created with Inkscape (http://www.inkscape.org/) -->

<svg
   xmlns:dc="http://purl.org/dc/elements/1.1/"
   xmlns:cc="http://creativecommons.org/ns#"
   xmlns:rdf="http://www.w3.org/1999/02/22-rdf-syntax-ns#"
   xmlns:svg="http://www.w3.org/2000/svg"
   xmlns="http://www.w3.org/2000/svg"
   xmlns:sodipodi="http://sodipodi.sourceforge.net/DTD/sodipodi-0.dtd"
   xmlns:inkscape="http://www.inkscape.org/namespaces/inkscape"
   width="100mm"
   height="100mm"
   viewBox="0 0 100 100"
   version="1.1"
   id="svg8"
   inkscape:version="0.92pre3 r"
   sodipodi:docname="Publish.svg">
  <defs
     id="defs2" />
  <sodipodi:namedview
     id="base"
     pagecolor="#ffffff"
     bordercolor="#666666"
     borderopacity="1.0"
     inkscape:pageopacity="0.0"
     inkscape:pageshadow="2"
     inkscape:zoom="1.4"
     inkscape:cx="125.02158"
     inkscape:cy="186.32273"
     inkscape:document-units="mm"
     inkscape:current-layer="layer1"
     showgrid="false"
     inkscape:window-width="2497"
     inkscape:window-height="1016"
     inkscape:window-x="63"
     inkscape:window-y="27"
     inkscape:window-maximized="1" />
  <metadata
     id="metadata5">
    <rdf:RDF>
      <cc:Work
         rdf:about="">
        <dc:format>image/svg+xml</dc:format>
        <dc:type
           rdf:resource="http://purl.org/dc/dcmitype/StillImage" />
        <dc:title></dc:title>
      </cc:Work>
    </rdf:RDF>
  </metadata>
  <g
     inkscape:label="Ebene 1"
     inkscape:groupmode="layer"
     id="layer1"
     transform="translate(0,-197)">
    <path
       style="fill:#2a4dc3;stroke-width:0.33068255;fill-opacity:1"
       d="m -1.5649,295.57063 c -1.580688,-1.4491 -2.231166,-2.33152 -3.317009,-4.49969 -0.536647,-1.07154 -0.666405,-1.85796 -0.604061,-3.66093 0.0705,-2.038 -0.01772,-2.43173 -0.783934,-3.50111 -0.842799,-1.1762 -0.85411,-1.2548 -0.475403,-3.30382 0.33993,-1.83926 0.325176,-2.13633 -0.119309,-2.40112 -0.423389,-0.25221 -0.508801,-1.07488 -0.516687,-4.97636 l -0.0094,-4.67421 -1.657968,-1.2794 c -0.911875,-0.70367 -1.924606,-1.2794 -2.2505,-1.2794 -0.382431,0 -0.769261,-0.45366 -1.090929,-1.27941 -0.274126,-0.70367 -1.2753,-2.30611 -2.224853,-3.56098 l -1.726444,-2.28158 0.207275,-2.61013 c 0.203303,-2.56002 0.230941,-2.6268 1.439918,-3.47844 1.145833,-0.80716 1.232644,-0.98384 1.232644,-2.50871 0,-0.90222 -0.147938,-1.73772 -0.328756,-1.85668 -0.180818,-0.11895 -1.122692,-0.30351 -2.093077,-0.41011 -1.641142,-0.1803 -1.877135,-0.32523 -3.380233,-2.07588 -1.352908,-1.57573 -1.886039,-1.94656 -3.275515,-2.27836 -1.28623,-0.30714 -1.681726,-0.55607 -1.757926,-1.10646 -0.08686,-0.62749 -0.310785,-0.70732 -1.923079,-0.68569 -2.886877,0.0388 -4.249561,-0.53036 -5.239798,-2.18829 -0.691226,-1.1573 -0.788894,-1.56967 -0.520357,-2.19702 0.280022,-0.65422 0.110551,-1.1284 -1.108255,-3.10075 -0.791357,-1.28064 -1.525522,-2.92929 -1.631466,-3.66369 -0.224419,-1.55563 -0.691463,-2.2185 -1.189543,-1.68831 -0.535385,0.56989 0.0119,3.09245 1.011451,4.66198 1.062247,1.66802 1.212865,2.96746 0.343945,2.96746 -0.825308,0 -1.439181,-0.62271 -2.414245,-2.44898 -0.679489,-1.27266 -0.852138,-2.04196 -0.852138,-3.79683 0,-2.12365 -0.03371,-2.21564 -0.961545,-2.62474 -0.950378,-0.41904 -0.961472,-0.45417 -0.955702,-3.02668 0.0064,-2.81559 -0.1816,-2.39704 2.828967,-6.30134 0.941157,-1.22055 1.047419,-1.5537 0.870736,-2.72988 -0.150473,-1.00167 -0.06469,-1.50025 0.339875,-1.97615 0.503722,-0.59249 0.504458,-0.6796 0.01072,-1.2604 -0.29175,-0.34315 -0.530451,-1.17711 -0.530451,-1.85323 0,-1.86248 -1.213074,-2.64048 -4.117095,-2.64048 -1.240431,0 -2.344471,0.15353 -2.453415,0.34118 -0.108951,0.18765 -1.451592,0.33607 -2.983664,0.32982 -2.244394,-0.009 -2.925672,-0.13576 -3.50672,-0.65174 C -49.675488,207.66188 -50,207.26171 -50,207.12482 c 0,-0.6765 1.296587,-1.15627 3.151708,-1.16618 1.453592,-0.008 1.992838,-0.12926 1.899313,-0.42791 -0.07187,-0.22939 -0.463564,-0.50073 -0.870536,-0.60299 -1.041742,-0.26178 -0.267765,-0.87716 1.491587,-1.18594 0.766735,-0.13457 2.116618,-0.81134 3.139234,-1.57386 l 1.794076,-1.33778 h 3.480709 c 2.866881,0 3.895912,0.15 5.835128,0.85057 2.851899,1.03027 3.294385,1.04886 4.117241,0.17295 0.535012,-0.56949 1.068379,-0.68234 3.225035,-0.68234 2.694995,0 5.704989,0.77789 6.165892,1.59349 0.344518,0.60964 3.539264,0.63548 3.351114,0.0271 -0.0725,-0.23456 -0.697541,-0.50323 -1.388886,-0.59706 -0.989909,-0.13434 -1.257002,-0.31558 -1.257002,-0.85293 0,-0.5552 -0.267092,-0.71414 -1.433276,-0.85294 l -1.433277,-0.17058 1.319146,-1.10882 c 1.095618,-0.92093 1.594824,-1.10882 2.946114,-1.10882 1.436103,0 1.710382,0.12008 2.337874,1.02353 0.884855,1.27398 2.562811,1.41358 3.670958,0.30542 1.116478,-1.11649 1.637117,-0.42833 0.571599,0.75553 -0.680006,0.75552 -1.178249,0.98609 -2.1309,0.98609 -1.167319,0 -1.237177,0.0574 -1.141962,0.93823 0.09119,0.84357 0.242153,0.94899 1.496356,1.04485 0.901164,0.0689 1.581888,-0.0719 1.92308,-0.39793 0.29047,-0.27749 0.960828,-0.55577 1.48968,-0.61838 0.712441,-0.0843 0.988064,-0.31269 1.063955,-0.88148 0.06887,-0.51632 -0.06224,-0.76764 -0.400639,-0.76764 -0.276687,0 -0.503068,-0.22489 -0.503068,-0.49976 0,-0.833 1.230055,-1.29189 2.793817,-1.04227 l 1.438455,0.22961 -0.673828,0.76349 c -1.219152,1.38139 -0.755951,2.59598 0.990018,2.59598 0.556672,0 0.630682,-0.17506 0.516015,-1.22055 -0.123189,-1.12323 -0.03752,-1.27285 1.073958,-1.87647 1.6836617,-0.9143 4.0702245,-0.85455 6.1410333,0.15376 0.9145639,0.44532 1.9152484,0.90109 2.2237433,1.01282 0.3651061,0.13223 0.5608964,0.55615 0.5608964,1.21439 0,0.7116 0.1899395,1.07542 0.6410298,1.22781 1.1952752,0.40382 0.5685642,1.47834 -0.9332981,1.60015 -0.7536887,0.0611 -1.1663658,0.31557 -1.4010418,0.86384 -0.2035494,0.47555 -0.6141915,0.77718 -1.0580407,0.77718 -1.2468899,0 -3.9612994,-0.77873 -3.7832619,-1.08537 0.093343,-0.16077 0.9106845,-0.69199 1.8162993,-1.18048 l 1.646575,-0.8882 -0.7863145,-0.67776 c -0.658292,-0.56742 -1.0721594,-0.64202 -2.5419232,-0.45813 -1.0428135,0.13046 -2.0194217,0.48157 -2.4053789,0.86478 -0.357374,0.35483 -1.056968,0.75276 -1.554649,0.88429 -0.644409,0.1703 -0.805866,0.34453 -0.560896,0.60528 0.488795,0.52032 0.425724,0.91204 -0.146847,0.91204 -0.269964,0 -0.573853,0.23029 -0.675318,0.51176 -0.276315,0.76647 -1.397962,0.64575 -1.397962,-0.15045 0,-1.15033 -0.525128,-1.08931 -3.100476,0.36028 -1.379673,0.77657 -2.834819,1.5844 -3.233659,1.79517 -1.491142,0.78803 -0.01336,3.59982 1.900866,3.6168 1.58126,0.014 1.869168,0.3137 1.869168,1.94557 0,1.26703 0.09442,1.50444 0.560351,1.40893 0.308185,-0.0632 0.852475,-0.71409 1.209512,-1.44649 0.506239,-1.03843 0.929765,-1.4151 1.923626,-1.71082 1.274219,-0.37915 1.274482,-0.37958 1.369506,-2.29295 0.06905,-1.39019 0.270155,-2.08242 0.735146,-2.53036 0.592668,-0.57093 0.775648,-0.58011 2.4690581,-0.12381 l 1.8289553,0.49283 -0.1051908,1.27941 c -0.1247335,1.51705 0.2823016,1.63223 2.1616082,0.61167 0.676272,-0.36725 1.3195731,-0.57196 1.4295337,-0.4549 0.1099698,0.11706 0.1999425,0.7909 0.1999425,1.49744 0,1.03792 0.1846426,1.42456 0.9615446,2.01342 1.2903907,0.97807 1.2903907,2.18968 0,2.89999 -0.5288523,0.2911 -0.9615446,0.59898 -0.9615446,0.68417 0,0.0852 0.5769231,0.46819 1.2820595,0.85111 1.2084676,0.65626 1.6307027,1.43624 1.0015567,1.85013 -0.3509238,0.23087 -3.1763116,-0.7732 -3.4364357,-1.22122 -0.1056088,-0.1819 0.06387,-0.63174 0.3766717,-0.99964 0.8303513,-0.97667 0.1918383,-1.50377 -1.0120777,-0.83547 -1.1925773,0.662 -1.8728649,0.66054 -2.3918868,-0.005 -0.5399546,-0.69255 -2.0320594,-0.50547 -2.1705937,0.27213 -0.06914,0.38786 0.1885766,0.71536 0.7376984,0.9376 1.1368747,0.4601 0.6983223,1.12929 -0.5489764,0.83768 -0.860642,-0.20122 -1.12689,-0.0513 -2.3101,1.30116 -0.735545,0.84072 -1.834552,1.79484 -2.442247,2.12025 -1.591354,0.85218 -4.410628,3.88848 -4.639225,4.99634 -0.132747,0.64339 -0.726342,1.3226 -1.856057,2.1238 -2.52646,1.79175 -3.166682,2.65909 -3.098895,4.19815 0.08349,1.89525 0.08622,1.89153 -0.965852,1.31241 -0.741405,-0.40811 -0.961535,-0.7616 -0.961535,-1.54405 v -1.01476 h -2.987953 c -2.716327,0 -3.150464,0.0937 -4.775524,1.0306 -1.383589,0.79769 -1.930257,1.35669 -2.418952,2.47352 -1.006235,2.29958 -1.103149,2.90127 -0.67182,4.17098 0.335415,0.98738 0.576196,1.20487 1.383379,1.24951 1.71954,0.0952 2.073143,-0.0238 3.772814,-1.26829 1.509912,-1.10559 1.688458,-1.16242 1.886875,-0.6005 0.129858,0.36772 -0.02689,1.07749 -0.384704,1.74177 -0.672656,1.24889 -0.619843,1.31395 1.425927,1.75699 0.996069,0.2157 1.00818,0.24323 1.101832,2.50449 0.107344,2.59187 0.240636,2.74255 2.772284,3.13402 l 1.58493,0.24508 1.299685,-1.58718 c 1.277308,-1.55984 1.32428,-1.58292 2.727966,-1.34071 0.829806,0.14318 1.742444,0.58085 2.178034,1.04453 0.817368,0.87005 3.1657,1.12945 3.829371,0.423 0.612829,-0.65233 1.615857,0.007 2.669328,1.75446 0.9904541,1.64299 1.0634826,1.69119 2.5625197,1.69119 1.4061932,0 1.6021654,0.10188 2.2101787,1.14908 0.3669413,0.63201 0.6693762,1.59155 0.6720746,2.13234 0.00273,0.5408 0.1336736,1.19978 0.2910509,1.46442 0.5349849,0.89959 3.2853092,1.73591 5.7096401,1.7362 l 2.319694,2.8e-4 0.809319,1.3647 c 0.508246,0.85701 1.050045,1.3647 1.456389,1.3647 1.315621,0 1.211502,1.86923 -0.199533,3.58233 -1.137021,1.38044 -1.350118,2.06857 -1.605046,5.18295 -0.119937,1.46524 -0.347334,2.93116 -0.505329,3.25759 -0.441905,0.91299 -2.00891,1.62412 -3.578859,1.62412 -1.2744457,0 -1.4599424,0.10435 -1.8170987,1.02219 -0.3090763,0.79427 -0.3146093,1.37372 -0.024803,2.59882 0.3708025,1.56753 0.3653604,1.58671 -0.9447275,3.32778 -0.7247245,0.96315 -1.7434253,2.46379 -2.2637828,3.33477 -0.7466657,1.24978 -1.2995125,1.7311 -2.6226742,2.28337 -0.922123,0.38487 -1.9633829,0.74872 -2.3139248,0.80854 -0.891469,0.15215 -1.056887,1.29505 -0.187441,1.29505 0.8599605,0 0.8513839,0.81164 -0.01763,1.67349 -0.773495,0.76707 -0.612847,1.73826 0.2875349,1.73826 1.0375712,0 1.2873561,0.58897 0.9383222,2.21256 -0.3093852,1.43918 -0.2831283,1.53069 0.6891461,2.40154 0.5559358,0.49795 1.0107874,1.20001 1.0107874,1.56013 0,0.55996 -0.2150061,0.64612 -1.4847093,0.595 -1.2264483,-0.0494 -1.7421443,-0.29579 -2.9647403,-1.4166 z m -8.254471,-73.65655 c 0.187831,-0.31938 0.23562,-0.69341 0.106209,-0.83116 -0.38882,-0.41389 -1.971088,0.35652 -2.090761,1.01799 -0.08895,0.4917 0.06514,0.59325 0.765845,0.5047 0.482462,-0.0609 1.030884,-0.37215 1.218707,-0.69153 z m -3.321714,-1.55588 c 1.10324,-1.75573 1.108264,-1.78694 0.287744,-1.78694 -0.964098,0 -2.210825,1.28411 -2.210825,2.27711 0,1.22781 1.004437,0.97179 1.923081,-0.49017 z m 6.34321,0.55544 c 0.06487,-0.36266 -0.239628,-0.68355 -0.871045,-0.91785 -1.13225,-0.42015 -1.497338,-0.0553 -0.978125,0.97735 0.420145,0.83566 1.696363,0.7946 1.84917,-0.0595 z m -3.004043,-0.8436 c 0.853482,-0.34862 0.627638,-1.49878 -0.294304,-1.49878 -0.64102,0 -0.801278,0.17059 -0.801278,0.85294 0,0.87724 0.21656,1.0049 1.095582,0.64584 z m 2.590312,-1.15761 c -0.108943,-0.18764 -0.333807,-0.34117 -0.499679,-0.34117 -0.165881,0 -0.301599,0.15353 -0.301599,0.34117 0,0.18765 0.224854,0.34118 0.499688,0.34118 0.274825,0 0.410542,-0.15353 0.30159,-0.34118 z m -3.529734,-1.01647 c 0.391345,-0.67402 -0.478637,-1.71293 -1.434404,-1.71293 -1.801435,0 -3.359345,1.30908 -2.167268,1.8211 0.727887,0.31265 3.404011,0.23227 3.601672,-0.10817 z m 1.272456,0.0165 c 0.10143,-0.17468 0.0378,-0.41404 -0.141341,-0.5319 -0.179155,-0.11786 -0.325739,0.0251 -0.325739,0.3176 0,0.59929 0.192329,0.68752 0.46708,0.2143 z m -6.161084,-3.9222 c 0.788286,-1.22544 -0.624431,-2.48649 -1.610115,-1.43725 -0.406627,0.43283 -0.432111,0.69719 -0.134264,1.39303 0.371529,0.86798 1.200945,0.88901 1.744379,0.0442 z m -4.031984,-6.8631 c 0.104391,-0.28956 0.107716,-0.61385 0.0073,-0.72064 -0.299545,-0.31886 -2.561165,0.37321 -2.703343,0.82723 -0.206802,0.66041 2.457429,0.55506 2.695956,-0.10659 z m -0.08395,-2.74259 c 0.391617,-1.08632 0.210163,-1.25829 -1.126309,-1.06747 -1.441389,0.2058 -2.077386,0.65733 -1.741272,1.23623 0.345373,0.59485 2.641009,0.45975 2.867581,-0.16876 z m 156.973322,84.28484 c 0.10125,-0.55966 1.94041,-2.13425 4.59944,-3.93785 0.52886,-0.3587 1.39424,-0.65334 1.92309,-0.65474 0.52884,-9.7e-4 1.43029,-0.30678 2.0032,-0.67861 0.91614,-0.59459 1.04167,-0.85346 1.04167,-2.14813 0,-1.57638 0.41985,-2.29089 1.34615,-2.29089 0.44567,0 0.57693,0.27168 0.57693,1.19412 0,0.96666 0.1221,1.19411 0.64102,1.19411 0.40251,0 0.64103,0.22746 0.64103,0.61128 0,0.40585 -0.61933,0.93259 -1.84295,1.56741 -1.01362,0.52589 -3.28526,1.93174 -5.04807,3.12411 -3.46597,2.34441 -6.10421,3.25015 -5.88151,2.01919 z m -8.70183,-1.04288 c 0,-0.11177 0.29828,-0.64911 0.66284,-1.19411 0.51121,-0.7642 0.91451,-0.9909 1.76283,-0.9909 0.86393,0 1.09997,0.13801 1.09997,0.64311 0,0.84021 -1.32375,1.74512 -2.55283,1.74512 -0.53505,0 -0.97281,-0.0915 -0.97281,-0.20322 z m -2.23048,-5.95916 -1.04333,-2.40945 -3.25092,0.1263 c -2.65681,0.10323 -3.76801,0.32534 -6.08043,1.21535 -1.55621,0.59896 -2.89035,1.08903 -2.96473,1.08903 -0.40623,0 -0.0429,-1.34788 0.50578,-1.87646 0.5632,-0.54255 0.64104,-1.05082 0.64104,-4.18626 v -3.56874 l 1.18442,-1.15483 c 0.88725,-0.86509 1.47399,-1.15484 2.33851,-1.15484 1.0239,0 1.38071,-0.26943 3.16283,-2.38822 1.84224,-2.19027 2.11331,-2.38821 3.27045,-2.38821 0.69396,0 1.26173,0.15353 1.26173,0.34117 0,0.83943 1.01678,0.20807 1.92308,-1.19411 0.9315,-1.4412 1.08201,-1.53529 2.45573,-1.53529 0.90978,0 1.93367,0.28135 2.70649,0.7437 1.17258,0.70151 1.21314,0.77891 0.71511,1.3647 -0.29038,0.34155 -0.86619,0.621 -1.27957,0.621 -0.58518,0 -0.75161,0.18621 -0.75161,0.84094 0,1.00738 0.82093,1.54728 2.35271,1.54728 1.0995,0 1.11552,-0.0214 1.34293,-1.79117 0.27814,-2.16454 0.6631,-3.32645 1.10211,-3.32645 0.17953,0 0.76003,0.63715 1.28998,1.41589 0.81638,1.19962 0.96355,1.72877 0.96355,3.4643 0,1.96277 0.0529,2.09658 1.26382,3.19995 0.98044,0.89331 1.30857,1.47441 1.46338,2.59154 0.32549,2.34859 -0.77229,4.38615 -4.23554,7.86143 l -2.95063,2.9609 h -3.17179 -3.17177 z m -79.821568,-2.96405 c -6.36e-4,-1.6852 -0.13609,-2.1301 -0.960782,-3.15587 -0.861895,-1.07204 -0.960118,-1.43113 -0.96079,-3.51255 -6.36e-4,-2.01752 -0.104755,-2.42915 -0.802032,-3.17138 -1.036163,-1.10296 -1.039052,-2.62296 -0.0082,-4.40425 0.4343,-0.75058 0.794146,-1.64859 0.799643,-1.99557 0.0055,-0.34698 -0.766663,-2.0358 -1.715925,-3.75293 l -1.725917,-3.12204 0.163228,-2.42604 0.163238,-2.42603 -1.685834,-0.17243 c -1.098724,-0.11238 -1.78788,-0.36655 -1.978872,-0.72984 -0.369977,-0.70372 -3.030237,-0.76627 -3.761603,-0.0884 -0.31202,0.28918 -1.673268,0.54583 -3.550876,0.66945 l -3.044873,0.20048 -2.403843,-3.02949 -2.403852,-3.02949 0.116839,-2.30926 c 0.06887,-1.36056 0.299263,-2.50347 0.560896,-2.78196 0.658092,-0.70051 0.561005,-1.78866 -0.159576,-1.78866 -0.715476,0 -1.131078,-1.29587 -0.624131,-1.94609 0.191384,-0.24546 1.483428,-1.29323 2.871205,-2.32836 2.505618,-1.86892 2.523235,-1.89262 2.523235,-3.39529 0,-1.42433 0.08168,-1.56417 1.390339,-2.38054 1.049991,-0.65501 1.838486,-0.86732 3.221048,-0.86732 1.00689,0 2.220173,-0.20975 2.696194,-0.46611 0.476029,-0.25636 2.127519,-0.57143 3.669985,-0.70015 l 2.804482,-0.23403 v 1.54354 1.54356 l 1.842956,0.53675 c 1.013622,0.29521 2.316587,0.76009 2.895491,1.03305 1.431604,0.67506 1.671814,0.62953 1.671814,-0.31683 0,-0.55486 0.229069,-0.8785 0.721153,-1.01887 1.315548,-0.37528 1.990939,-0.20593 3.262223,0.81798 1.090248,0.87811 1.53258,1.01403 3.299827,1.01403 1.739433,0 2.156989,-0.12366 2.827519,-0.83743 0.941374,-1.00206 1.034627,-2.57091 0.200588,-3.37438 -0.418802,-0.40344 -1.180631,-0.56464 -2.668497,-0.56464 -2.427102,0 -3.247596,-0.64495 -3.616236,-2.84256 -0.209873,-1.25112 -0.249149,-1.28618 -0.914083,-0.81623 -0.395241,0.27934 -0.839191,1.12238 -1.02973,1.9554 l -0.334943,1.46435 -1.034173,-1.10084 c -0.729602,-0.77664 -1.034526,-1.41965 -1.035398,-2.1834 -9.09e-4,-0.87544 -0.285428,-1.32738 -1.486509,-2.36199 -1.77874,-1.53219 -3.528779,-1.81194 -3.201451,-0.51175 0.1063,0.4222 0.195237,0.86961 0.197644,0.99425 0.0027,0.12464 0.69865,0.68135 1.547217,1.23714 1.446469,0.9474 1.534507,1.08653 1.409364,2.2275 -0.112023,1.02144 -0.284772,1.25235 -1.075194,1.43714 -0.593549,0.13877 -1.133158,0.0514 -1.459479,-0.23648 -0.461075,-0.40665 -0.418664,-0.47531 0.387329,-0.62722 1.459552,-0.2751 1.264124,-0.83841 -0.781681,-2.25314 -1.057169,-0.73106 -2.008655,-1.5954 -2.11441,-1.92077 -0.177347,-0.5456 -0.26343,-0.53556 -1.108082,0.12917 -0.603099,0.47463 -1.172953,0.65203 -1.668898,0.51953 -0.629173,-0.16809 -0.976245,0.10578 -2.109113,1.66431 -0.745812,1.02604 -1.356015,2.01261 -1.356015,2.19237 0,0.96484 -3.36209,1.40882 -4.925696,0.65046 -0.868102,-0.42103 -1.153047,-1.1833 -1.15967,-3.10228 -0.0036,-0.95646 0.167262,-1.36518 0.695215,-1.66595 0.804057,-0.45805 2.593974,-0.55331 3.845915,-0.20467 0.697985,0.19438 0.899309,0.10626 1.070742,-0.46869 0.137916,-0.46256 0.03162,-0.84777 -0.306461,-1.11095 -0.374699,-0.29165 -0.46211,-0.69804 -0.316653,-1.47222 0.174304,-0.9277 0.367268,-1.09769 1.456527,-1.28309 0.985811,-0.16781 1.443606,-0.50018 2.130536,-1.54683 0.987093,-1.504 1.458543,-1.71594 3.83166,-1.72255 l 1.674684,-0.005 -0.198288,-1.10881 c -0.261106,-1.46017 -0.292432,-1.48296 -1.416678,-1.03125 -0.89087,0.35794 -0.989328,0.32123 -1.273683,-0.47489 -0.169497,-0.47455 -0.590124,-0.94131 -0.934725,-1.03724 -1.669787,-0.46481 -0.845877,-2.55935 1.246064,-3.16778 0.850157,-0.24726 1.342077,-0.69287 1.881923,-1.70476 0.538274,-1.00894 1.232744,-1.63966 2.635094,-2.39319 1.733531,-0.9315 2.188683,-1.0232 5.07844,-1.0232 2.948976,0 3.35007,0.0853 5.651466,1.20167 2.096244,1.01688 2.416758,1.27922 2.084105,1.70588 -0.271608,0.34837 -1.024865,0.5042 -2.437191,0.5042 -1.516481,0 -2.044098,0.12057 -2.044098,0.46712 0,0.47034 1.544664,0.88653 3.317309,0.89382 0.900449,0.004 2.416203,-1.32362 3.316748,-2.90443 0.331563,-0.58201 0.429413,-0.6042 0.715948,-0.16239 0.182544,0.28147 0.376373,0.64631 0.43073,0.81076 0.05433,0.16445 0.736753,-0.0474 1.516427,-0.47082 1.294488,-0.70297 1.733058,-0.75499 5.050903,-0.59914 l 3.633334,0.17067 -0.200479,-0.97159 c -0.11026,-0.53438 -0.107797,-1.2824 0.0055,-1.66228 0.164883,-0.55299 0.377327,-0.64528 1.065555,-0.46292 1.115906,0.29569 1.564016,0.97653 1.815827,2.75886 0.203649,1.44146 0.508701,1.68118 1.581668,1.2429 0.357375,-0.14599 0.506975,-0.65585 0.506975,-1.72792 v -1.52083 l 2.651938,-1.30418 c 2.410512,-1.18545 2.99077,-1.32672 6.373675,-1.55171 l 3.72171,-0.24732 2.070591,1.23259 c 2.064766,1.22912 2.081629,1.23258 6.000074,1.23258 3.882628,0 3.943958,0.0122 5.143528,1.02352 1.52275,1.2838 1.89638,1.27939 3.06503,-0.0363 0.92601,-1.04246 0.9806,-1.05686 3.34523,-0.88188 1.3221,0.0978 2.98076,0.44026 3.68589,0.76092 1.27048,0.57776 2.07909,0.64984 16.34615,1.45715 4.41876,0.25004 5.02032,0.36513 7.43592,1.42266 1.44553,0.63285 2.55021,1.28501 2.45484,1.44925 -0.0954,0.16425 -1.16989,0.19411 -2.38784,0.0663 -2.32241,-0.2436 -2.80786,0.0572 -1.57546,0.97596 0.70251,0.52379 0.54074,0.92698 -0.3719,0.92698 -0.37393,0 -0.58761,0.24813 -0.58761,0.68235 0,0.52413 -0.21367,0.68235 -0.92147,0.68235 -0.50681,0 -1.37546,0.0966 -1.93031,0.21477 l -1.00884,0.21478 1.6098,1.81185 c 1.18254,1.33098 1.6098,2.07837 1.6098,2.81601 0,1.68594 -0.96541,1.58017 -3.34728,-0.36669 -2.2866,-1.86899 -2.51771,-2.50303 -1.60053,-4.391 0.38232,-0.787 0.4137,-1.14293 0.13255,-1.50353 -0.30421,-0.39018 -0.77883,-0.17172 -2.72545,1.25447 l -2.3571,1.72693 -1.92759,-0.23816 c -1.06018,-0.13097 -2.09751,-0.45606 -2.30516,-0.7224 -0.45727,-0.58649 -1.06157,-0.15586 -1.73949,1.23961 -0.73822,1.51958 0.0104,2.24501 2.62451,2.54299 2.78483,0.31746 3.40528,0.58827 4.25377,1.85668 0.92013,1.3755 0.54963,1.96847 -0.5511,0.88201 -0.73084,-0.72135 -0.89473,-0.76772 -1.13026,-0.31973 -0.17763,0.33789 -0.0896,0.82584 0.24785,1.3741 0.34514,0.56071 0.49025,1.3966 0.42621,2.45518 l -0.0971,1.60501 -1.67123,0.10271 c -1.63031,0.10018 -1.67638,0.13186 -1.88103,1.29305 -0.24006,1.36216 0.28862,2.20719 1.797,2.87227 0.95638,0.42169 2.03026,1.80784 1.68516,2.1752 -0.48969,0.52125 -1.42591,0.0657 -3.77605,-1.83736 -1.90999,-1.54663 -2.78702,-2.04705 -3.58769,-2.04705 -1.03524,0 -1.05974,0.0339 -1.05974,1.469 0,1.59931 0.49512,2.47682 2.77156,4.9121 1.08204,1.15753 1.36329,1.7275 1.51222,3.06455 0.17163,1.54097 0.11918,1.69744 -0.84849,2.53048 -0.56731,0.48838 -2.005,1.23015 -3.19491,1.6484 -2.12306,0.74627 -2.16346,0.78277 -2.16346,1.95519 0,1.50802 -0.65838,1.37639 -1.15747,-0.2314 -0.70443,-2.26926 -2.68868,-1.75388 -2.68868,0.69834 0,1.1181 0.21133,1.46256 1.76281,2.8735 2.10537,1.91462 2.34631,3.08339 0.83196,4.0356 -1.42231,0.89434 -2.07612,0.71986 -3.51079,-0.9369 -1.20901,-1.39619 -1.34509,-1.46867 -1.64338,-0.87537 -0.17887,0.35578 -0.32523,0.82785 -0.32523,1.04907 0,0.22122 1.08174,2.02449 2.40386,4.00729 1.32212,1.9828 2.40383,3.90833 2.40383,4.27896 0,0.66367 -0.0109,0.66405 -0.72115,0.025 -0.39662,-0.35694 -1.76682,-1.71771 -3.04487,-3.02396 l -2.32371,-2.37498 v -3.15216 -3.15217 l -2.57675,-2.37411 c -2.350417,-2.16557 -2.723474,-2.38743 -4.246807,-2.52553 -3.439391,-0.31185 -5.105209,1.61364 -5.525391,6.38665 -0.245261,2.78602 -1.057631,4.61832 -2.047587,4.61832 -0.676299,0 -1.158697,-0.63778 -3.187541,-4.21426 -1.227065,-2.16309 -1.326177,-2.52063 -1.326177,-4.78416 0,-2.41285 -0.01426,-2.45436 -1.04166,-3.02993 -1.189507,-0.6664 -5.673371,-1.55145 -9.214752,-1.81887 -3.15785,-0.23847 -5.766415,-1.55863 -5.768105,-2.91916 -9.09e-4,-0.82306 -0.497998,-1.3159 -1.326951,-1.3159 -0.172077,0 -0.268073,0.72637 -0.214169,1.62058 l 0.09769,1.62058 3.044873,1.60496 c 1.674685,0.88272 3.513625,1.70583 4.086541,1.82913 1.475007,0.31746 1.404168,1.4231 -0.162447,2.53523 -0.659855,0.46843 -2.330015,1.73505 -3.71146,2.8147 -2.129154,1.66401 -2.719624,1.963 -3.876613,1.963 -1.625652,0 -2.264638,-0.61664 -2.680495,-2.58679 -0.206075,-0.97631 -1.075593,-2.37842 -2.958988,-4.77142 -1.46693,-1.86384 -2.786266,-3.43998 -2.931842,-3.50253 -0.499797,-0.21474 -0.263249,0.61294 0.737208,2.57955 0.551048,1.0832 1.86219,3.69722 2.913652,5.80893 1.491751,2.99598 2.088934,3.88681 2.71828,4.05495 0.443586,0.11851 2.039501,-0.0423 3.546469,-0.35758 3.353895,-0.70147 3.714404,-0.46839 2.417936,1.56328 -0.518142,0.81197 -1.632512,2.551 -2.476382,3.86452 -0.84387,1.31352 -2.623919,3.49098 -3.955666,4.83878 l -2.42136,2.45056 0.507392,1.81413 c 0.279058,0.99778 0.592396,2.73531 0.696306,3.86118 l 0.188921,2.04705 -1.767447,2.496 c -1.224812,1.72971 -1.767438,2.8088 -1.767438,3.5148 0,0.8275 -0.182353,1.08644 -0.971275,1.37919 -0.569863,0.21147 -1.179621,0.80339 -1.475388,1.43225 -0.277259,0.5895 -1.603632,2.26167 -2.94749,3.71594 l -2.443383,2.64409 h -2.812006 -2.812003 l -6.36e-4,-1.96175 z m 24.570604,-53.49654 c 0.10798,-0.29953 -0.105,-0.86421 -0.490829,-1.30139 -0.374873,-0.42476 -0.681578,-1.07955 -0.681578,-1.45511 0,-0.44135 -0.453389,-0.95407 -1.282051,-1.44983 -1.62208,-0.97043 -1.69331,-1.74687 -0.160257,-1.74687 0.771496,0 1.121793,-0.15605 1.121793,-0.49976 0,-0.68414 -1.016366,-1.20612 -2.348486,-1.20612 -1.218289,0 -1.499028,0.40554 -1.495475,2.16026 0.0018,0.85127 0.240054,1.25334 1.121792,1.89253 1.283205,0.93022 1.380618,1.38999 0.478583,2.25895 -0.83702,0.80632 -0.81119,1.19288 0.08013,1.19934 0.396633,0.003 0.937505,0.15405 1.201926,0.33595 0.752926,0.51794 2.241061,0.40399 2.454458,-0.18795 z m -10.974267,-1.72501 c 0.771078,-0.31497 0.616599,-0.68019 -0.614809,-1.45358 -0.891606,-0.55998 -1.121793,-0.91776 -1.121793,-1.74361 0,-1.02885 -0.01336,-1.03694 -1.362184,-0.82311 -2.406455,0.38151 -2.952588,0.81343 -3.06253,2.422 l -0.09779,1.43068 2.020858,0.12161 c 1.111485,0.0669 2.40571,0.1512 2.87607,0.18736 0.47036,0.0362 1.083334,-0.0275 1.362175,-0.14135 z M 48.36396,210.77967 c 1.204434,-1.99795 1.245736,-2.67782 0.193673,-3.18807 -1.156135,-0.56073 -0.987573,-1.42191 0.480764,-2.45624 1.336126,-0.94121 1.587983,-1.47223 0.842652,-1.77669 -0.420081,-0.17159 -1.630075,0.56519 -3.501358,2.13202 -0.781418,0.6543 -0.86693,0.94198 -0.86693,2.91654 0,2.17394 -0.0091,2.19505 -1.138882,2.76875 -1.546018,0.78477 -1.125209,1.25415 1.124382,1.25415 h 1.870748 z m 16.440368,64.57004 c -0.948906,-0.70749 -0.990771,-3.17104 -0.06896,-4.05903 0.930673,-0.89654 1.110882,-1.83516 0.492084,-2.56301 -0.294476,-0.34637 -0.487768,-0.98786 -0.429531,-1.42554 0.08777,-0.65959 0.297847,-0.79644 1.227683,-0.79971 1.442018,-0.005 1.792868,-0.26333 2.575195,-1.89567 0.42129,-0.87903 0.861714,-1.34155 1.277471,-1.34155 0.780246,0 0.781817,0.18207 0.03253,3.7702 -0.49669,2.37865 -0.920842,3.38888 -2.425767,5.7776 -1.0031,1.59219 -1.858719,2.93203 -1.901366,2.97743 -0.04261,0.0454 -0.393361,-0.15293 -0.779355,-0.44072 z m 57.180842,-13.36032 c -0.377,-0.4013 -0.17603,-0.70109 0.61093,-0.91134 0.4407,-0.11774 0.80128,-0.36468 0.80128,-0.54875 0,-0.18407 0.22837,-0.33467 0.50748,-0.33467 0.27912,0 0.44971,0.18448 0.3791,0.40995 -0.16311,0.52088 -2.04525,1.6547 -2.29879,1.38481 z m 16.36948,0.0249 c -0.11753,-0.12511 -0.21368,-0.73922 -0.21368,-1.36471 0,-1.32987 -0.68583,-1.52298 -1.74216,-0.49055 -0.36848,0.36014 -1.40671,0.7522 -2.34297,0.88475 -1.42837,0.20222 -1.71343,0.14885 -1.89502,-0.35487 -0.1329,-0.36864 -0.0122,-0.74979 0.3191,-1.00765 0.29307,-0.22811 0.53285,-0.56508 0.53285,-0.74884 0,-0.43779 -1.23738,-1.02508 -2.77595,-1.31755 -1.24897,-0.23741 -2.67277,-1.31421 -2.67277,-2.02137 0,-0.21347 0.43043,-0.72687 0.95649,-1.14088 0.81626,-0.6424 1.05213,-0.68931 1.60875,-0.32005 0.37349,0.24778 0.61537,0.72435 0.56595,1.11507 -0.11142,0.8808 1.03539,1.09213 2.05819,0.37929 0.64287,-0.44804 0.86645,-0.45296 1.70164,-0.0374 0.52885,0.26312 1.79087,0.86112 2.80449,1.32889 1.73649,0.80137 1.84295,0.91896 1.84295,2.03549 0,1.52095 0.27432,2.26431 0.83558,2.26431 0.24556,0 0.44647,0.23029 0.44647,0.51177 0,0.52176 -1.59674,0.74541 -2.02991,0.28431 z m -19.12393,-0.72788 c 0,-0.49745 0.75982,-1.09175 1.39582,-1.09175 0.6063,0 0.60781,0.0222 0.0465,0.68234 -0.57907,0.68111 -1.44231,0.92616 -1.44231,0.40941 z m -1.34216,-0.64246 c 0.23137,-0.0986 0.50782,-0.0865 0.61432,0.0269 0.10651,0.11336 -0.0828,0.194 -0.42067,0.17919 -0.37338,-0.0163 -0.44933,-0.0972 -0.19365,-0.20613 z m -7.07131,-0.36172 c -2.53317,-0.11858 -3.00647,-0.44309 -1.92307,-1.31852 0.45417,-0.36698 0.46941,-0.45554 0.0801,-0.46535 -0.26442,-0.007 -1.19624,-0.97111 -2.07071,-2.1432 -0.87446,-1.17208 -2.30271,-3.02335 -3.17387,-4.11391 -1.45492,-1.82133 -1.54197,-2.02751 -1.06879,-2.5312 0.53377,-0.56817 0.69224,-0.45367 4.10917,2.96942 0.28609,0.2866 0.75855,1.02007 1.0499,1.62992 0.50034,1.04727 0.62713,1.10882 2.28432,1.10882 1.65789,0 1.7546,0.047 1.7546,0.85293 0,0.68236 -0.16026,0.85294 -0.80128,0.85294 -0.64103,0 -0.80129,0.17058 -0.80129,0.85294 0,0.80133 0.10182,0.85302 1.6827,0.85421 1.49815,9.6e-4 3.76601,0.92189 3.76601,1.529 0,0.0966 -0.54085,0.14471 -1.20191,0.10694 -0.66106,-0.0378 -2.31971,-0.12098 -3.6859,-0.18494 z m 11.13782,-0.0876 c -0.10894,-0.18765 -0.0453,-0.34118 0.14134,-0.34118 0.18669,0 0.33943,0.15353 0.33943,0.34118 0,0.18764 -0.0636,0.34117 -0.14134,0.34117 -0.0778,0 -0.23048,-0.15353 -0.33943,-0.34117 z m -2.71416,-2.8147 c 0.0125,-1.76719 0.53956,-2.57349 1.86728,-2.85615 l 1.00714,-0.21442 v 2.08969 c 0,1.5849 -0.11076,2.08971 -0.45847,2.08971 -0.25217,0 -0.50457,-0.33343 -0.5609,-0.74093 -0.16618,-1.20214 -0.90371,-1.17755 -0.90371,0.0302 0,0.70762 -0.15737,1.05195 -0.48076,1.05195 -0.35354,0 -0.47808,-0.38373 -0.47058,-1.44999 z m -6.5644,-1.3969 c -0.88958,-1.24149 -1.04627,-2.50887 -0.41695,-3.37241 0.22035,-0.30236 1.32934,-1.06097 2.46442,-1.68579 1.19876,-0.65988 2.27348,-1.52839 2.5641,-2.07212 0.6392,-1.19589 0.82249,-1.17861 1.43839,0.13556 0.86632,1.84853 0.65903,4.29284 -0.53743,6.33749 l -1.04167,1.78012 -1.82662,0.009 c -1.69907,0.009 -1.88374,-0.0706 -2.64424,-1.13195 z m -21.757761,-6.59228 c -0.728958,-0.77595 0.512353,-2.66493 1.605427,-2.44307 0.765854,0.15544 0.919361,1.41266 0.258398,2.11623 -0.532896,0.56726 -1.481675,0.73363 -1.863825,0.32684 z M -0.247126,219.87199 c 0.198098,-0.63262 0.8880891,-0.73754 0.8880891,-0.13505 0,0.29711 -0.2283617,0.5402 -0.5074741,0.5402 -0.279122,0 -0.450391,-0.18232 -0.380615,-0.40515 z m 2.1701394,-0.44779 c 0,-0.28147 0.2183041,-0.51177 0.4851242,-0.51177 0.2668111,0 0.7650637,-0.18609 1.1072109,-0.41354 0.8994004,-0.5979 1.1407541,-0.10751 0.357456,0.72629 -0.7757844,0.82578 -1.9497911,0.94562 -1.9497911,0.19902 z m 30.6228606,-4.24079 c -0.34451,-0.59334 0.111759,-1.64056 0.798016,-1.83158 0.878913,-0.24466 0.786087,-0.80054 -0.251002,-1.50302 -1.753501,-1.18778 -1.759906,-2.19876 -0.0169,-2.66443 0.792065,-0.21161 0.875361,-0.13133 1.082362,1.04322 0.141432,0.80249 0.663543,1.74006 1.413634,2.53851 0.952569,1.01398 1.11815,1.36975 0.831633,1.78684 -0.447584,0.65157 -3.551031,1.15875 -3.857762,0.63046 z m -3.699776,-1.08008 c 0,-0.77853 1.104412,-2.31977 1.794385,-2.50411 1.878698,-0.50192 2.346205,1.05302 0.65176,2.16777 -1.163522,0.76545 -2.446145,0.94181 -2.446145,0.33634 z"
       id="path4494"
       inkscape:connector-curvature="0" />
    <rect
       style="opacity:1;fill:#2a4dc3;fill-opacity:0;fill-rule:nonzero;stroke:#4b4b4b;stroke-width:2;stroke-linecap:butt;stroke-linejoin:miter;stroke-miterlimit:4;stroke-dasharray:none;stroke-opacity:0.97089946;paint-order:markers fill stroke"
       id="rect4515"
       width="97.999954"
       height="97.999962"
       x="1.0000206"
       y="198.00003" />
  </g>
</svg>
